<?xml version="1.0" encoding="utf-8"?>
<!-- Generator: Adobe Illustrator 24.3.0, SVG Export Plug-In . SVG Version: 6.00 Build 0)  -->
<svg version="1.1" id="Layer_1" xmlns="http://www.w3.org/2000/svg" xmlns:xlink="http://www.w3.org/1999/xlink" x="0px" y="0px"
	 viewBox="0 0 314 109" style="enable-background:new 0 0 314 109;" xml:space="preserve">
<style type="text/css">
	.st0{fill:url(#SVGID_1_);}
	.st1{fill:url(#SVGID_2_);}
	.st2{fill:url(#SVGID_3_);}
	.st3{fill:url(#SVGID_4_);}
	.st4{fill:url(#SVGID_5_);}
	.st5{fill:#FFFFFF;stroke:#FFFFFF;stroke-width:0.5;stroke-miterlimit:10;}
	.st6{fill:url(#SVGID_6_);stroke:#FFFFFF;stroke-width:0.5;stroke-miterlimit:10;}
	.st7{fill:url(#SVGID_7_);stroke:#FFFFFF;stroke-width:0.5;stroke-miterlimit:10;}
	.st8{fill:url(#SVGID_8_);stroke:#FFFFFF;stroke-width:0.5;stroke-miterlimit:10;}
	.st9{fill:none;}
	.st10{enable-background:new    ;}
	.st11{fill:#FFFFFF;}
	.st12{fill:none;stroke:#000000;stroke-width:0.5;stroke-miterlimit:10;}
</style>
<g>
	<g>
		<linearGradient id="SVGID_1_" gradientUnits="userSpaceOnUse" x1="13.6815" y1="56.5236" x2="37.2261" y2="57.0425">
			<stop  offset="0" style="stop-color:#000000"/>
			<stop  offset="0.2449" style="stop-color:#444444"/>
			<stop  offset="0.6171" style="stop-color:#A5A5A5"/>
			<stop  offset="0.877" style="stop-color:#E2E2E2"/>
			<stop  offset="1" style="stop-color:#FAFAFA"/>
			<stop  offset="1" style="stop-color:#FFFFFF"/>
		</linearGradient>
		<path class="st0" d="M49.4,67.7c0,2.9-0.5,5.4-1.6,7.7c-1.1,2.2-2.6,4-4.4,5.5c-2.2,1.7-4.6,2.9-7.2,3.7c-2.6,0.7-5.9,1.1-10,1.1
			H5.6V27.4h17.2c4.2,0,7.4,0.2,9.5,0.5s4.1,1,6,2c2.1,1.1,3.7,2.6,4.7,4.3c1,1.8,1.5,3.9,1.5,6.3c0,2.8-0.7,5.1-2.1,7
			s-3.3,3.5-5.6,4.7v0.3c3.9,0.8,7,2.5,9.3,5.2C48.3,60.3,49.4,63.7,49.4,67.7z M36.4,41.5c0-1.4-0.2-2.6-0.7-3.5s-1.2-1.7-2.3-2.3
			c-1.2-0.7-2.7-1.1-4.5-1.3s-3.9-0.2-6.5-0.2h-9.2V51h10c2.4,0,4.4-0.1,5.8-0.4s2.8-0.8,4-1.5c1.2-0.8,2.1-1.8,2.6-3
			C36.2,44.7,36.4,43.2,36.4,41.5z M41.4,68c0-2.3-0.3-4.2-1-5.6s-2-2.5-3.8-3.5c-1.2-0.7-2.8-1.1-4.5-1.3c-1.8-0.2-4-0.3-6.5-0.3
			H13.3V79h10.2c3.4,0,6.2-0.2,8.3-0.5s3.9-1,5.3-1.9c1.5-1,2.5-2.2,3.2-3.5C41,71.8,41.4,70.1,41.4,68z"/>
		<linearGradient id="SVGID_2_" gradientUnits="userSpaceOnUse" x1="13.7242" y1="54.5798" x2="37.2688" y2="55.0987">
			<stop  offset="0" style="stop-color:#000000"/>
			<stop  offset="0.2449" style="stop-color:#444444"/>
			<stop  offset="0.6171" style="stop-color:#A5A5A5"/>
			<stop  offset="0.877" style="stop-color:#E2E2E2"/>
			<stop  offset="1" style="stop-color:#FAFAFA"/>
			<stop  offset="1" style="stop-color:#FFFFFF"/>
		</linearGradient>
		<path class="st1" d="M129.1,27.4L114,85.6h-8.7L93.1,37.3l-12,48.3h-8.5L57.2,27.4h7.9l12.2,48.4l12-48.4h7.8l12.2,48.8l12.2-48.8
			C121.5,27.4,129.1,27.4,129.1,27.4z"/>
		<linearGradient id="SVGID_3_" gradientUnits="userSpaceOnUse" x1="13.7238" y1="54.6019" x2="37.2684" y2="55.1208">
			<stop  offset="0" style="stop-color:#000000"/>
			<stop  offset="0.2449" style="stop-color:#444444"/>
			<stop  offset="0.6171" style="stop-color:#A5A5A5"/>
			<stop  offset="0.877" style="stop-color:#E2E2E2"/>
			<stop  offset="1" style="stop-color:#FAFAFA"/>
			<stop  offset="1" style="stop-color:#FFFFFF"/>
		</linearGradient>
		<path class="st2" d="M128.1,27.4L113,85.6h-8.7L92.1,37.3l-12,48.3h-8.5L56.2,27.4h7.9l12.2,48.4l12-48.4h7.8l12.2,48.8l12.2-48.8
			C120.5,27.4,128.1,27.4,128.1,27.4z"/>
		<linearGradient id="SVGID_4_" gradientUnits="userSpaceOnUse" x1="13.7561" y1="53.1359" x2="37.3007" y2="53.6548">
			<stop  offset="0" style="stop-color:#000000"/>
			<stop  offset="0.2449" style="stop-color:#444444"/>
			<stop  offset="0.6171" style="stop-color:#A5A5A5"/>
			<stop  offset="0.877" style="stop-color:#E2E2E2"/>
			<stop  offset="1" style="stop-color:#FAFAFA"/>
			<stop  offset="1" style="stop-color:#FFFFFF"/>
		</linearGradient>
		<path class="st3" d="M192.3,85.6h-7.7V35.5l-16.2,34.1h-4.6l-16.1-34.1v50.1h-7.2V27.4h10.6l15.5,32.4l15-32.4h10.7V85.6
			L192.3,85.6z"/>
		<linearGradient id="SVGID_5_" gradientUnits="userSpaceOnUse" x1="13.7556" y1="53.1579" x2="37.3002" y2="53.6768">
			<stop  offset="0" style="stop-color:#000000"/>
			<stop  offset="0.2449" style="stop-color:#444444"/>
			<stop  offset="0.6171" style="stop-color:#A5A5A5"/>
			<stop  offset="0.877" style="stop-color:#E2E2E2"/>
			<stop  offset="1" style="stop-color:#FAFAFA"/>
			<stop  offset="1" style="stop-color:#FFFFFF"/>
		</linearGradient>
		<path class="st4" d="M191.3,85.6h-7.7V35.5l-16.2,34.1h-4.6l-16.1-34.1v50.1h-7.2V27.4h10.6l15.5,32.4l15-32.4h10.7V85.6
			L191.3,85.6z"/>
	</g>
	<g>
		<path class="st5" d="M52.4,67.7c0,2.9-0.5,5.4-1.6,7.7c-1.1,2.2-2.6,4-4.4,5.5c-2.2,1.7-4.6,2.9-7.2,3.7c-2.6,0.7-5.9,1.1-10,1.1
			H8.5V27.4h17.2c4.2,0,7.4,0.2,9.5,0.5s4.1,1,6,2c2.1,1.1,3.7,2.6,4.7,4.3c1,1.8,1.5,3.9,1.5,6.3c0,2.8-0.7,5.1-2.1,7
			S42,51,39.7,52.2v0.3c3.9,0.8,7,2.5,9.3,5.2C51.2,60.3,52.4,63.7,52.4,67.7z M39.3,41.5c0-1.4-0.2-2.6-0.7-3.5s-1.2-1.7-2.3-2.3
			c-1.2-0.7-2.7-1.1-4.5-1.3s-3.9-0.2-6.5-0.2h-9.2V51h10c2.4,0,4.4-0.1,5.8-0.4c1.4-0.2,2.8-0.8,4-1.5c1.2-0.8,2.1-1.8,2.6-3
			C39.1,44.6,39.3,43.2,39.3,41.5z M44.3,68c0-2.3-0.3-4.2-1-5.6s-2-2.5-3.8-3.5c-1.2-0.7-2.8-1.1-4.5-1.3c-1.8-0.2-4-0.3-6.5-0.3
			H16.2v21.6h10.3c3.4,0,6.2-0.2,8.3-0.5s3.9-1,5.3-1.9c1.5-1,2.5-2.2,3.2-3.5C44,71.7,44.3,70.1,44.3,68z"/>
		<linearGradient id="SVGID_6_" gradientUnits="userSpaceOnUse" x1="-0.6213" y1="56.55" x2="53.1613" y2="56.55">
			<stop  offset="0" style="stop-color:#FF7300"/>
			<stop  offset="0.131" style="stop-color:#F97C01"/>
			<stop  offset="0.3482" style="stop-color:#EA9602"/>
			<stop  offset="0.4086" style="stop-color:#E59E03"/>
			<stop  offset="0.8652" style="stop-color:#E5C500"/>
			<stop  offset="0.9944" style="stop-color:#BF6F00"/>
		</linearGradient>
		<path class="st6" d="M49.4,67.7c0,2.9-0.5,5.4-1.6,7.7c-1.1,2.2-2.6,4-4.4,5.5c-2.2,1.7-4.6,2.9-7.2,3.7c-2.6,0.7-5.9,1.1-10,1.1
			H5.6V27.8c0-0.2,0.2-0.4,0.4-0.4h16.8c4.2,0,7.4,0.2,9.5,0.5s4.1,1,6,2c2.1,1.1,3.7,2.6,4.7,4.3c1,1.8,1.5,3.9,1.5,6.3
			c0,2.8-0.7,5.1-2.1,7s-3.3,3.5-5.6,4.7v0.3c3.9,0.8,7,2.5,9.3,5.2C48.3,60.3,49.4,63.7,49.4,67.7z M36.4,41.5
			c0-1.4-0.2-2.6-0.7-3.5s-1.2-1.7-2.3-2.3c-1.2-0.7-2.7-1.1-4.5-1.3s-3.9-0.2-6.5-0.2h-9.2V51h10c2.4,0,4.4-0.1,5.8-0.4
			s2.8-0.8,4-1.5c1.2-0.8,2.1-1.8,2.6-3C36.2,44.7,36.4,43.2,36.4,41.5z M41.4,68c0-2.3-0.3-4.2-1-5.6s-2-2.5-3.8-3.5
			c-1.2-0.7-2.8-1.1-4.5-1.3c-1.8-0.2-4-0.3-6.5-0.3H13.3V79h10.2c3.4,0,6.2-0.2,8.3-0.5s3.9-1,5.3-1.9c1.5-1,2.5-2.2,3.2-3.5
			C41,71.8,41.4,70.1,41.4,68z"/>
		<path class="st5" d="M130.3,27.4l-15.1,58.2h-8.7L94.3,37.3l-12,48.3h-8.5L58.4,27.4h7.9l12.2,48.4l12-48.4h7.8l12.2,48.8
			l12.2-48.8C122.7,27.4,130.3,27.4,130.3,27.4z"/>
		<linearGradient id="SVGID_7_" gradientUnits="userSpaceOnUse" x1="62.9069" y1="56.5" x2="134.8069" y2="56.5">
			<stop  offset="0" style="stop-color:#FF7300"/>
			<stop  offset="0.107" style="stop-color:#F97C01"/>
			<stop  offset="0.2844" style="stop-color:#EA9602"/>
			<stop  offset="0.3337" style="stop-color:#E59E03"/>
			<stop  offset="0.8652" style="stop-color:#E5C500"/>
			<stop  offset="0.9944" style="stop-color:#BF6F00"/>
		</linearGradient>
		<path class="st7" d="M128.1,27.4L113,85.6h-8.7L92.1,37.3l-12,48.3h-8.5L56.2,27.4h7.9l12.2,48.4l12-48.4h7.8l12.2,48.8l12.2-48.8
			C120.5,27.4,128.1,27.4,128.1,27.4z"/>
		<path class="st5" d="M193,85.6h-7.7V35.5l-16.2,34.1h-4.6l-15.4-34v50.1l-7.9-0.1V27.4h10.6l15.5,32.4l15-32.4h11.4v58.2
			C193.7,85.6,193,85.6,193,85.6z"/>
		<linearGradient id="SVGID_8_" gradientUnits="userSpaceOnUse" x1="129.195" y1="56.5" x2="195.7421" y2="56.5">
			<stop  offset="0" style="stop-color:#FF7300"/>
			<stop  offset="0.1771" style="stop-color:#F97C01"/>
			<stop  offset="0.4705" style="stop-color:#EA9602"/>
			<stop  offset="0.5521" style="stop-color:#E59E03"/>
			<stop  offset="0.8652" style="stop-color:#E5C500"/>
			<stop  offset="0.9944" style="stop-color:#BF6F00"/>
		</linearGradient>
		<path class="st8" d="M191.3,85.6h-7.7V35.5l-16.2,34.1h-4.6l-16.1-34.1v50.1h-7.2V27.4h10.6l15.5,32.4l15-32.4h10.7V85.6
			L191.3,85.6z"/>
	</g>
</g>
<line class="st9" x1="192" y1="27" x2="192" y2="86"/>
<line class="st9" x1="192" y1="27" x2="192" y2="86"/>
<path class="st9" d="M169,69"/>
<path class="st9" d="M184,36"/>
<g class="st10">
	<path class="st11" d="M206.7,27.9h8c1.6,0,2.8,0,3.6,0.1s1.5,0.2,2.1,0.4s1.1,0.5,1.5,0.8c0.4,0.3,0.6,0.7,0.6,1.2
		c0,0.5-0.3,0.9-0.8,1.3c-0.5,0.4-1.2,0.7-2.1,0.9c1.2,0.2,2.2,0.5,2.8,0.9c0.7,0.4,1,0.9,1,1.5c0,0.5-0.2,0.9-0.6,1.3
		c-0.4,0.4-1,0.8-1.7,1s-1.6,0.4-2.7,0.5c-0.7,0-2.3,0.1-4.9,0.1h-6.8V27.9z M210.7,29.6v2.3h2.7c1.6,0,2.6,0,2.9,0
		c0.7,0,1.2-0.2,1.6-0.4c0.4-0.2,0.6-0.5,0.6-0.8c0-0.3-0.2-0.6-0.5-0.8c-0.3-0.2-0.9-0.3-1.5-0.4c-0.4,0-1.6,0-3.5,0H210.7z
		 M210.7,33.6v2.7h3.8c1.5,0,2.4,0,2.8-0.1c0.6-0.1,1.1-0.2,1.5-0.4c0.4-0.2,0.6-0.5,0.6-0.9c0-0.3-0.1-0.6-0.4-0.8
		c-0.3-0.2-0.7-0.4-1.3-0.5s-1.7-0.1-3.6-0.1H210.7z"/>
	<path class="st11" d="M227,37.9V28h4.1v8.3h10.1v1.7H227z"/>
	<path class="st11" d="M244,27.9h4.1v5.4c0,0.9,0,1.4,0.2,1.7c0.2,0.4,0.6,0.7,1.2,1c0.7,0.2,1.5,0.4,2.7,0.4c1.2,0,2-0.1,2.6-0.4
		s0.9-0.5,1.1-0.9s0.2-0.9,0.2-1.7v-5.5h4.1v5.3c0,1.2-0.1,2.1-0.3,2.5s-0.6,0.9-1.2,1.3c-0.6,0.3-1.4,0.6-2.4,0.8s-2.3,0.3-3.9,0.3
		c-1.9,0-3.4-0.1-4.4-0.3s-1.8-0.5-2.3-0.9c-0.6-0.4-1-0.7-1.1-1.1c-0.3-0.6-0.4-1.4-0.4-2.5V27.9z"/>
	<path class="st11" d="M264.3,37.9v-10h14.9v1.7h-10.8v2.2h10.1v1.7h-10.1v2.7h11.2v1.7H264.3z"/>
</g>
<g class="st10">
	<path class="st12" d="M206.7,27.9h8c1.6,0,2.8,0,3.6,0.1s1.5,0.2,2.1,0.4s1.1,0.5,1.5,0.8c0.4,0.3,0.6,0.7,0.6,1.2
		c0,0.5-0.3,0.9-0.8,1.3c-0.5,0.4-1.2,0.7-2.1,0.9c1.2,0.2,2.2,0.5,2.8,0.9c0.7,0.4,1,0.9,1,1.5c0,0.5-0.2,0.9-0.6,1.3
		c-0.4,0.4-1,0.8-1.7,1s-1.6,0.4-2.7,0.5c-0.7,0-2.3,0.1-4.9,0.1h-6.8V27.9z M210.7,29.6v2.3h2.7c1.6,0,2.6,0,2.9,0
		c0.7,0,1.2-0.2,1.6-0.4c0.4-0.2,0.6-0.5,0.6-0.8c0-0.3-0.2-0.6-0.5-0.8c-0.3-0.2-0.9-0.3-1.5-0.4c-0.4,0-1.6,0-3.5,0H210.7z
		 M210.7,33.6v2.7h3.8c1.5,0,2.4,0,2.8-0.1c0.6-0.1,1.1-0.2,1.5-0.4c0.4-0.2,0.6-0.5,0.6-0.9c0-0.3-0.1-0.6-0.4-0.8
		c-0.3-0.2-0.7-0.4-1.3-0.5s-1.7-0.1-3.6-0.1H210.7z"/>
	<path class="st12" d="M227,37.9V28h4.1v8.3h10.1v1.7H227z"/>
	<path class="st12" d="M244,27.9h4.1v5.4c0,0.9,0,1.4,0.2,1.7c0.2,0.4,0.6,0.7,1.2,1c0.7,0.2,1.5,0.4,2.7,0.4c1.2,0,2-0.1,2.6-0.4
		s0.9-0.5,1.1-0.9s0.2-0.9,0.2-1.7v-5.5h4.1v5.3c0,1.2-0.1,2.1-0.3,2.5s-0.6,0.9-1.2,1.3c-0.6,0.3-1.4,0.6-2.4,0.8s-2.3,0.3-3.9,0.3
		c-1.9,0-3.4-0.1-4.4-0.3s-1.8-0.5-2.3-0.9c-0.6-0.4-1-0.7-1.1-1.1c-0.3-0.6-0.4-1.4-0.4-2.5V27.9z"/>
	<path class="st12" d="M264.3,37.9v-10h14.9v1.7h-10.8v2.2h10.1v1.7h-10.1v2.7h11.2v1.7H264.3z"/>
</g>
<g class="st10">
	<path class="st11" d="M209.5,60.9l-4.8-10h4.1l3,6.9l3.7-6.9h4.8l3.5,7l3.1-7h4.1l-4.9,10h-4.3l-4-7.5l-4,7.5H209.5z"/>
	<path class="st11" d="M249.7,60.9h-4.4l-1.8-2.3h-8l-1.7,2.3h-4.3l7.8-10h4.3L249.7,60.9z M242.2,57l-2.8-3.7l-2.7,3.7H242.2z"/>
	<path class="st11" d="M254.3,60.9v-8.3h-6v-1.7h15.9v1.7h-5.9v8.3H254.3z"/>
	<path class="st11" d="M266.9,60.9v-10h14.9v1.7h-10.8v2.2H281v1.7h-10.1v2.7h11.2v1.7H266.9z"/>
	<path class="st11" d="M285.6,60.9v-10h8.5c2.1,0,3.7,0.1,4.7,0.3s1.7,0.5,2.3,1s0.9,1,0.9,1.6c0,0.8-0.4,1.4-1.3,1.9
		c-0.9,0.5-2.2,0.8-4,0.9c0.9,0.3,1.6,0.5,2.2,0.8c0.6,0.3,1.3,0.8,2.3,1.6l2.5,2h-4.8l-2.9-2.2c-1-0.8-1.8-1.3-2.1-1.5
		c-0.4-0.2-0.8-0.3-1.2-0.4c-0.4-0.1-1.1-0.1-2-0.1h-0.8v4.2H285.6z M289.6,55.2h3c1.9,0,3.2,0,3.6-0.1s0.9-0.2,1.1-0.4
		s0.4-0.5,0.4-0.8c0-0.3-0.2-0.6-0.5-0.8s-0.9-0.3-1.5-0.4c-0.3,0-1.3,0-3,0h-3.2V55.2z"/>
</g>
<g class="st10">
	<path class="st12" d="M209.5,60.9l-4.8-10h4.1l3,6.9l3.7-6.9h4.8l3.5,7l3.1-7h4.1l-4.9,10h-4.3l-4-7.5l-4,7.5H209.5z"/>
	<path class="st12" d="M249.7,60.9h-4.4l-1.8-2.3h-8l-1.7,2.3h-4.3l7.8-10h4.3L249.7,60.9z M242.2,57l-2.8-3.7l-2.7,3.7H242.2z"/>
	<path class="st12" d="M254.3,60.9v-8.3h-6v-1.7h15.9v1.7h-5.9v8.3H254.3z"/>
	<path class="st12" d="M266.9,60.9v-10h14.9v1.7h-10.8v2.2H281v1.7h-10.1v2.7h11.2v1.7H266.9z"/>
	<path class="st12" d="M285.6,60.9v-10h8.5c2.1,0,3.7,0.1,4.7,0.3s1.7,0.5,2.3,1s0.9,1,0.9,1.6c0,0.8-0.4,1.4-1.3,1.9
		c-0.9,0.5-2.2,0.8-4,0.9c0.9,0.3,1.6,0.5,2.2,0.8c0.6,0.3,1.3,0.8,2.3,1.6l2.5,2h-4.8l-2.9-2.2c-1-0.8-1.8-1.3-2.1-1.5
		c-0.4-0.2-0.8-0.3-1.2-0.4c-0.4-0.1-1.1-0.1-2-0.1h-0.8v4.2H285.6z M289.6,55.2h3c1.9,0,3.2,0,3.6-0.1s0.9-0.2,1.1-0.4
		s0.4-0.5,0.4-0.8c0-0.3-0.2-0.6-0.5-0.8s-0.9-0.3-1.5-0.4c-0.3,0-1.3,0-3,0h-3.2V55.2z"/>
</g>
<g class="st10">
	<path class="st11" d="M205.6,84.9v-10h6.1l3.6,6.8l3.6-6.8h6.1v10h-3.8v-7.9l-4,7.9h-3.9l-4-7.9v7.9H205.6z"/>
	<path class="st11" d="M229,74.9h4.1v5.4c0,0.9,0,1.4,0.2,1.7c0.2,0.4,0.6,0.7,1.2,1c0.7,0.2,1.5,0.4,2.7,0.4c1.2,0,2-0.1,2.6-0.4
		c0.6-0.2,0.9-0.5,1.1-0.9s0.2-0.9,0.2-1.7v-5.5h4.1v5.3c0,1.2-0.1,2.1-0.3,2.5s-0.6,0.9-1.2,1.3c-0.6,0.3-1.4,0.6-2.4,0.8
		c-1,0.2-2.3,0.3-3.9,0.3c-1.9,0-3.4-0.1-4.4-0.3c-1-0.2-1.8-0.5-2.3-0.9c-0.6-0.4-1-0.7-1.1-1.1c-0.3-0.6-0.4-1.4-0.4-2.5V74.9z"/>
	<path class="st11" d="M248.2,81.7l3.9-0.2c0.2,0.7,0.7,1.1,1.4,1.5c0.7,0.3,1.7,0.5,2.9,0.5c1.3,0,2.3-0.1,2.9-0.4
		c0.7-0.3,1-0.6,1-1c0-0.2-0.1-0.4-0.4-0.6c-0.3-0.2-0.8-0.3-1.5-0.4c-0.5-0.1-1.6-0.2-3.2-0.4c-2.2-0.3-3.7-0.6-4.6-1
		c-1.2-0.6-1.8-1.2-1.8-2c0-0.5,0.3-1,0.9-1.4c0.6-0.4,1.4-0.8,2.5-1c1.1-0.2,2.4-0.3,3.9-0.3c2.5,0,4.4,0.3,5.7,0.8s1.9,1.3,2,2.2
		l-4.1,0.1c-0.2-0.5-0.5-0.9-1.1-1.1c-0.6-0.2-1.4-0.3-2.6-0.3c-1.2,0-2.1,0.1-2.8,0.4c-0.4,0.2-0.6,0.4-0.6,0.6
		c0,0.2,0.2,0.4,0.6,0.6c0.5,0.2,1.8,0.4,3.7,0.7s3.4,0.5,4.4,0.7c0.9,0.2,1.7,0.6,2.2,1c0.5,0.4,0.8,1,0.8,1.6c0,0.6-0.3,1.1-1,1.6
		s-1.5,0.9-2.7,1.1c-1.2,0.2-2.6,0.4-4.4,0.4c-2.5,0-4.5-0.3-5.8-0.9C249.3,83.7,248.5,82.8,248.2,81.7z"/>
	<path class="st11" d="M267.8,84.9v-10h4.1v10H267.8z"/>
	<path class="st11" d="M288.6,81.3l3.9,0.6c-0.6,1.1-1.6,1.9-3,2.4c-1.4,0.5-3.2,0.8-5.3,0.8c-2.7,0-4.9-0.5-6.6-1.4
		c-1.7-0.9-2.6-2.2-2.6-3.7c0-1.7,0.9-3,2.6-3.9c1.7-0.9,4-1.4,6.8-1.4c2.5,0,4.4,0.4,6,1.1c0.9,0.4,1.6,1,2.1,1.8l-4,0.5
		c-0.2-0.5-0.7-0.9-1.5-1.2c-0.8-0.3-1.7-0.5-2.7-0.5c-1.5,0-2.7,0.3-3.6,0.8s-1.4,1.4-1.4,2.6c0,1.3,0.5,2.2,1.4,2.7
		s2.1,0.8,3.6,0.8c1.1,0,2-0.2,2.8-0.5C287.7,82.5,288.3,82,288.6,81.3z"/>
</g>
<g class="st10">
	<path class="st12" d="M205.6,84.9v-10h6.1l3.6,6.8l3.6-6.8h6.1v10h-3.8v-7.9l-4,7.9h-3.9l-4-7.9v7.9H205.6z"/>
	<path class="st12" d="M229,74.9h4.1v5.4c0,0.9,0,1.4,0.2,1.7c0.2,0.4,0.6,0.7,1.2,1c0.7,0.2,1.5,0.4,2.7,0.4c1.2,0,2-0.1,2.6-0.4
		c0.6-0.2,0.9-0.5,1.1-0.9s0.2-0.9,0.2-1.7v-5.5h4.1v5.3c0,1.2-0.1,2.1-0.3,2.5s-0.6,0.9-1.2,1.3c-0.6,0.3-1.4,0.6-2.4,0.8
		c-1,0.2-2.3,0.3-3.9,0.3c-1.9,0-3.4-0.1-4.4-0.3c-1-0.2-1.8-0.5-2.3-0.9c-0.6-0.4-1-0.7-1.1-1.1c-0.3-0.6-0.4-1.4-0.4-2.5V74.9z"/>
	<path class="st12" d="M248.2,81.7l3.9-0.2c0.2,0.7,0.7,1.1,1.4,1.5c0.7,0.3,1.7,0.5,2.9,0.5c1.3,0,2.3-0.1,2.9-0.4
		c0.7-0.3,1-0.6,1-1c0-0.2-0.1-0.4-0.4-0.6c-0.3-0.2-0.8-0.3-1.5-0.4c-0.5-0.1-1.6-0.2-3.2-0.4c-2.2-0.3-3.7-0.6-4.6-1
		c-1.2-0.6-1.8-1.2-1.8-2c0-0.5,0.3-1,0.9-1.4c0.6-0.4,1.4-0.8,2.5-1c1.1-0.2,2.4-0.3,3.9-0.3c2.5,0,4.4,0.3,5.7,0.8s1.9,1.3,2,2.2
		l-4.1,0.1c-0.2-0.5-0.5-0.9-1.1-1.1c-0.6-0.2-1.4-0.3-2.6-0.3c-1.2,0-2.1,0.1-2.8,0.4c-0.4,0.2-0.6,0.4-0.6,0.6
		c0,0.2,0.2,0.4,0.6,0.6c0.5,0.2,1.8,0.4,3.7,0.7s3.4,0.5,4.4,0.7c0.9,0.2,1.7,0.6,2.2,1c0.5,0.4,0.8,1,0.8,1.6c0,0.6-0.3,1.1-1,1.6
		s-1.5,0.9-2.7,1.1c-1.2,0.2-2.6,0.4-4.4,0.4c-2.5,0-4.5-0.3-5.8-0.9C249.3,83.7,248.5,82.8,248.2,81.7z"/>
	<path class="st12" d="M267.8,84.9v-10h4.1v10H267.8z"/>
	<path class="st12" d="M288.6,81.3l3.9,0.6c-0.6,1.1-1.6,1.9-3,2.4c-1.4,0.5-3.2,0.8-5.3,0.8c-2.7,0-4.9-0.5-6.6-1.4
		c-1.7-0.9-2.6-2.2-2.6-3.7c0-1.7,0.9-3,2.6-3.9c1.7-0.9,4-1.4,6.8-1.4c2.5,0,4.4,0.4,6,1.1c0.9,0.4,1.6,1,2.1,1.8l-4,0.5
		c-0.2-0.5-0.7-0.9-1.5-1.2c-0.8-0.3-1.7-0.5-2.7-0.5c-1.5,0-2.7,0.3-3.6,0.8s-1.4,1.4-1.4,2.6c0,1.3,0.5,2.2,1.4,2.7
		s2.1,0.8,3.6,0.8c1.1,0,2-0.2,2.8-0.5C287.7,82.5,288.3,82,288.6,81.3z"/>
</g>
</svg>
